# xmcd
#
# Track frame offsets:
#	175
#	10365
#	25432
#	36950
#	51407
#	65720
#	80652
#	98050
#	116275
#	126697
#	137570
#	153765
#	168625
#	181000
#
# Disc length: 2613 seconds
#
# Revision: 1
# Processed by: cddbd v1.5PL3 Copyright (c) Steve Scherf et al.
# Submitted via: audiograbber 1.82.02
#
DISCID=c00a330e
DTITLE=Miss Lilian - Finally
DYEAR=1900
DGENRE=Country
TTITLE0=Oh Lonesome You
TTITLE1=Let That Pony Run
TTITLE2=Just In Case
TTITLE3=Out Of Your Shoes
TTITLE4=18 Wheels and A Dozen Roses
TTITLE5=The Wayward Wind
TTITLE6=I Saw The Light
TTITLE7=Water Of Love
TTITLE8=Don't Be Cruel
TTITLE9=Right Now
TTITLE10=The Bug
TTITLE11=Down At The Twist and Shout
TTITLE12=You Really Had Me Going
TTITLE13=Daddy's Hands
EXTD=
EXTT0=
EXTT1=
EXTT2=
EXTT3=
EXTT4=
EXTT5=
EXTT6=
EXTT7=
EXTT8=
EXTT9=
EXTT10=
EXTT11=
EXTT12=
EXTT13=
PLAYORDER=
